<?xml version="1.0" encoding="utf-8"?>
<!-- Svg Vector Icons : http://www.sfont.cn -->
<!DOCTYPE svg PUBLIC "-//W3C//DTD SVG 1.1//EN" "http://www.w3.org/Graphics/SVG/1.1/DTD/svg11.dtd">
<svg version="1.1" xmlns="http://www.w3.org/2000/svg" xmlns:xlink="http://www.w3.org/1999/xlink" x="0px" y="0px" viewBox="0 0 1000 1000" enable-background="new 0 0 1000 1000" xml:space="preserve">
<metadata> Svg Vector Icons : http://www.sfont.cn </metadata>
<g><g><g><path d="M333.3,158.3c46.1,9.6,106.4,14,166.7,13.3c60.2,0.6,120.5-3.8,166.6-13.3l227.9-53.4L499.2,10v0l-393.8,94.9L333.3,158.3z"/><polygon points="287.8,444.2 282,333 218.2,309.2 224,417.2 "/><polygon points="273.1,163.6 209.6,147.3 216.9,284.5 280.7,308.2 "/><polygon points="218,518.7 213.7,437.5 127.9,401.2 134.5,483.3 "/><polygon points="117.5,271.7 125.8,375.6 212.3,412.2 206.6,304.9 "/><polygon points="293.4,550.6 289.1,469.5 225.3,442.4 229.6,523.6 "/><polygon points="205.3,280.1 198.1,144.3 105.4,120.5 115.5,246.6 "/><path d="M337.3,465.2c8.8,2.3,18.3,4.4,28,6.3l-2.9-113.3c-11.1-2.2-21.9-4.5-31.8-7.2l-37-13.8l5.9,111.9L337.3,465.2z"/><path d="M453.1,482.3l-2.2-113.4c-26.9-1.6-53-4.4-77-8.5l2.9,113.3C400.5,477.8,426.4,480.7,453.1,482.3z"/><path d="M369.5,185.7l3.8,151.6c23.8,4.3,50,7.2,77.1,8.9l-3.1-153.5C419.2,191.4,392.8,189,369.5,185.7z"/><path d="M361.9,335.1l-3.8-151c-5.5-0.9-10.9-1.8-15.9-2.8l-57.5-14.8l7.7,146l45.3,16.9C345.2,331.5,353.4,333.3,361.9,335.1z"/><path d="M455.2,586.4l-1.6-81.5c-26.6-1.5-52.3-4.3-76.2-8.2l2.1,81.4C403.1,582.1,428.7,584.9,455.2,586.4z"/><path d="M337.3,569.2c9.6,2.6,19.9,4.8,30.7,6.9l-2-81.3c-12.4-2.3-24.3-4.9-35.3-7.9l-1.5-0.5l-28.4-12l4.3,81.1L337.3,569.2z"/><path d="M541.2,193.3c-13.4,0.5-27.2,0.7-41.2,0.8c-14-0.1-27.8-0.3-41.2-0.8l3.1,153.6c12.4,0.6,63.9,0.6,76.3,0L541.2,193.3z"/><path d="M537.7,369.5c-12.5,0.6-25.1,0.9-37.7,0.9c-12.6-0.1-25.2-0.3-37.7-0.9l2.2,113.3c13.9,3,59.6,2.5,71,0L537.7,369.5z"/><polygon points="781.7,309.2 718,333 712.2,444.2 776,417.2 "/><polygon points="790.4,147.3 726.9,163.6 719.3,308.2 783,284.5 "/><polygon points="872.1,401.2 786.3,437.5 782,518.7 865.5,483.3 "/><polygon points="882.5,271.7 793.4,304.9 787.7,412.2 874.2,375.6 "/><polygon points="774.7,442.4 710.8,469.5 706.6,550.6 770.3,523.6 "/><polygon points="894.5,120.5 801.9,144.3 794.7,280.1 884.5,246.6 "/><path d="M706.4,337.3l-37,13.8c-10,2.7-20.7,5-31.9,7.2l-2.9,113.3c9.8-1.9,19.2-4,28-6.3l37.9-16L706.4,337.3z"/><path d="M626.1,360.3c-24,4.1-50.1,6.9-77,8.5l-2.3,113.4c26.8-1.6,52.6-4.5,76.4-8.6L626.1,360.3z"/><path d="M630.5,185.7c-23.3,3.3-49.7,5.7-77.9,7l-3,153.5c27.1-1.7,53.3-4.6,77.1-8.9L630.5,185.7z"/><path d="M715.3,166.5l-57.5,14.8c-5.1,1-10.4,1.9-16,2.8l-3.8,151c8.4-1.7,16.6-3.5,24.3-5.6l45.3-16.9L715.3,166.5z"/><path d="M544.8,586.4c26.5-1.5,52.1-4.3,75.8-8.3l2.1-81.4c-23.9,3.9-49.6,6.6-76.2,8.2L544.8,586.4z"/><path d="M533.4,586.9l1.6-81.4c-11.6,0.5-23.3,0.8-35,0.8c-11.7-0.1-23.4-0.3-35-0.8l1.6,81.4C480.4,589.5,521,589.2,533.4,586.9z"/><path d="M634.1,494.8l-2.1,81.3c10.8-2.1,21.1-4.3,30.7-6.8l32.3-13.7l4.3-81.1l-28.4,12l-1.5,0.5C658.4,489.9,646.5,492.5,634.1,494.8z"/><path d="M946.8,641.4L857,589l6.4-80.1l-192.6,81.6l-1.5,0.5c-46.6,12.6-108,19.1-169.4,19.4c-61.4-0.3-122.8-6.8-169.4-19.4l-1.5-0.5l-192.6-81.6l6.4,80.1l-89.8,52.5c-12.2,7.1-19.9,20.2-20.1,34.4c-0.2,14.2,7,27.5,19,35.1l439.3,276.3c5.8,3.7,11.2,3.9,17.2,0l439.3-276.3c12-7.5,19.2-20.8,19-35.1C966.7,661.6,959.1,648.6,946.8,641.4z M500,896.6L152,677.8l34.2-20l138.6,89.7l2.4,1.3c29.3,12.9,61,22.3,94.3,28c0,0,4.4,0.7,9.9,1.7c5.5,0.9,9.9-5.6,9.9-14.6V653.5h117.2v110.3c0,9,4.4,15.5,10,14.6c5.5-0.9,9.9-1.7,9.9-1.7c33.3-5.6,65.1-15.1,94.4-28l2.4-1.3l138.5-89.7l34.3,20L500,896.6z"/></g></g><g></g><g></g><g></g><g></g><g></g><g></g><g></g><g></g><g></g><g></g><g></g><g></g><g></g><g></g><g></g></g>
</svg>